<svg id="Layer_1" data-name="Layer 1" xmlns="http://www.w3.org/2000/svg" viewBox="0 0 283.46 32.44"><defs><style>.cls-1{fill:none;stroke:#1d1d1b;stroke-linecap:round;stroke-miterlimit:10;stroke-width:0.6px;}.cls-2{font-size:8px;}.cls-2,.cls-5{font-family:Helvetica, Helvetica;}.cls-3{letter-spacing:-0.07em;}.cls-4,.cls-6,.cls-7{font-family:Helvetica-Oblique, Helvetica;}.cls-5{font-size:9px;}.cls-6{font-size:6px;}.cls-7{letter-spacing:-0.02em;}</style></defs><title>Artboard 1</title><line class="cls-1" x1="9.75" y1="8.61" x2="126" y2="8.61"/><line class="cls-1" x1="9.75" y1="8.61" x2="9.75" y2="5.36"/><line class="cls-1" x1="106.63" y1="8.61" x2="106.63" y2="5.36"/><line class="cls-1" x1="87.25" y1="8.61" x2="87.25" y2="5.36"/><line class="cls-1" x1="67.88" y1="8.61" x2="67.88" y2="5.36"/><line class="cls-1" x1="48.5" y1="8.61" x2="48.5" y2="5.36"/><line class="cls-1" x1="29.12" y1="8.61" x2="29.12" y2="5.36"/><line class="cls-1" x1="126" y1="8.61" x2="126" y2="5.36"/><line class="cls-1" x1="96.88" y1="8.61" x2="96.88" y2="6.99"/><line class="cls-1" x1="77.5" y1="8.61" x2="77.5" y2="6.99"/><line class="cls-1" x1="58.13" y1="8.61" x2="58.13" y2="6.99"/><line class="cls-1" x1="38.75" y1="8.61" x2="38.75" y2="6.99"/><line class="cls-1" x1="19.38" y1="8.61" x2="19.38" y2="6.99"/><line class="cls-1" x1="116.25" y1="8.61" x2="116.25" y2="6.99"/><text class="cls-2" transform="translate(7.52 16.78)">0</text><text class="cls-2" transform="translate(26.9 16.78)">1</text><text class="cls-2" transform="translate(46.21 16.78)">2</text><text class="cls-2" transform="translate(65.59 16.78)">3</text><text class="cls-2" transform="translate(85.06 16.78)">4</text><text class="cls-2" transform="translate(104.37 16.78)">5</text><text class="cls-2" transform="translate(123.75 16.78)">6</text><text class="cls-2" transform="translate(34.13 28.53)">Energ<tspan class="cls-3" x="21.35" y="0">y</tspan><tspan x="24.76" y="0" xml:space="preserve">,  </tspan><tspan class="cls-4" x="31.43" y="0">E</tspan><tspan x="36.76" y="0" xml:space="preserve"> (10</tspan></text><text class="cls-5" transform="translate(84.68 25.53) scale(0.58)">6 </text><text class="cls-2" transform="translate(89.05 28.53)">eV)</text><line class="cls-1" x1="154.13" y1="8.46" x2="270.38" y2="8.46"/><line class="cls-1" x1="154.13" y1="8.46" x2="154.13" y2="5.2"/><line class="cls-1" x1="251.01" y1="8.46" x2="251.01" y2="5.2"/><line class="cls-1" x1="231.63" y1="8.46" x2="231.63" y2="5.2"/><line class="cls-1" x1="212.25" y1="8.46" x2="212.25" y2="5.2"/><line class="cls-1" x1="192.88" y1="8.46" x2="192.88" y2="5.2"/><line class="cls-1" x1="173.5" y1="8.46" x2="173.5" y2="5.2"/><line class="cls-1" x1="270.38" y1="8.46" x2="270.38" y2="5.2"/><line class="cls-1" x1="241.26" y1="8.46" x2="241.26" y2="6.83"/><line class="cls-1" x1="221.88" y1="8.46" x2="221.88" y2="6.83"/><line class="cls-1" x1="202.51" y1="8.46" x2="202.51" y2="6.83"/><line class="cls-1" x1="183.13" y1="8.46" x2="183.13" y2="6.83"/><line class="cls-1" x1="163.75" y1="8.46" x2="163.75" y2="6.83"/><line class="cls-1" x1="260.63" y1="8.46" x2="260.63" y2="6.83"/><text class="cls-2" transform="translate(151.9 16.63)">0</text><text class="cls-2" transform="translate(171.28 16.63)">1</text><text class="cls-2" transform="translate(190.59 16.63)">2</text><text class="cls-2" transform="translate(209.97 16.63)">3</text><text class="cls-2" transform="translate(229.44 16.63)">4</text><text class="cls-2" transform="translate(248.75 16.63)">5</text><text class="cls-2" transform="translate(268.13 16.63)">6</text><text class="cls-2" transform="translate(184.1 28.37)">Energ<tspan class="cls-3" x="21.35" y="0">y</tspan><tspan x="24.76" y="0" xml:space="preserve">,  </tspan><tspan class="cls-4" x="31.43" y="0">E</tspan><tspan x="36.76" y="0" xml:space="preserve"> / </tspan><tspan class="cls-4" x="43.43" y="0">k</tspan><tspan class="cls-6" x="47.43" y="2">B</tspan><tspan class="cls-7" x="51.43" y="0">T</tspan></text></svg>