<svg xmlns="http://www.w3.org/2000/svg" xmlns:xlink="http://www.w3.org/1999/xlink" viewBox="0 0 225.53 89"><defs><style>.cls-1,.cls-10,.cls-11,.cls-21,.cls-22,.cls-23,.cls-24,.cls-25,.cls-26,.cls-27,.cls-28,.cls-29,.cls-4,.cls-5,.cls-7,.cls-8,.cls-9{fill:none;}.cls-2{isolation:isolate;}.cls-3{clip-path:url(#clip-path);}.cls-10,.cls-11,.cls-22,.cls-27,.cls-28,.cls-4,.cls-9{stroke:#000;}.cls-10,.cls-21,.cls-22,.cls-23,.cls-24,.cls-25,.cls-26,.cls-27,.cls-4,.cls-5,.cls-7,.cls-8,.cls-9{stroke-linecap:square;}.cls-10,.cls-11,.cls-21,.cls-22,.cls-24,.cls-25,.cls-27,.cls-28,.cls-4,.cls-5,.cls-8,.cls-9{stroke-miterlimit:3.25;}.cls-10,.cls-11,.cls-4,.cls-8{stroke-width:0.5px;}.cls-4{stroke-dasharray:2.01 2.01;}.cls-24,.cls-25,.cls-5,.cls-8{stroke:#eb6235;}.cls-5,.cls-9{stroke-width:0.6px;}.cls-6{fill:#fff;}.cls-23,.cls-26,.cls-7{stroke:#fff;stroke-miterlimit:3.24;}.cls-7{stroke-width:0.02px;}.cls-12,.cls-31{font-size:8px;}.cls-12,.cls-14,.cls-15,.cls-30,.cls-31{fill:#00adad;}.cls-12{font-family:Times-Roman, Times;}.cls-13,.cls-31{font-family:Times-Italic, Times;}.cls-13,.cls-32{font-style:italic;}.cls-14{font-size:9px;}.cls-14,.cls-15,.cls-33,.cls-34,.cls-35{font-family:MyriadPro-Regular, Myriad Pro;}.cls-15,.cls-33,.cls-34,.cls-35{font-size:7px;}.cls-16{letter-spacing:0.02em;}.cls-17{letter-spacing:-0.01em;}.cls-18{letter-spacing:0em;}.cls-19,.cls-40{font-size:5px;}.cls-20{clip-path:url(#clip-path-2);}.cls-21{stroke:#555;stroke-width:0.79px;}.cls-22,.cls-24,.cls-27,.cls-28{stroke-width:0.5px;}.cls-22,.cls-23{stroke-dasharray:1.99 1.99;}.cls-23,.cls-26{stroke-width:0.01px;}.cls-25{stroke-width:0.6px;}.cls-29{stroke:#00adad;stroke-miterlimit:10;stroke-width:0.7px;}.cls-34{letter-spacing:0em;}.cls-35{letter-spacing:0em;}.cls-36{letter-spacing:-0.03em;}.cls-37{letter-spacing:0.01em;}.cls-38{letter-spacing:-0.04em;}.cls-39{letter-spacing:0em;}.cls-40{letter-spacing:0em;}</style><clipPath id="clip-path" transform="translate(0 0.85)"><rect class="cls-1" x="20.57" y="-0.46" width="90.31" height="75.76"/></clipPath><clipPath id="clip-path-2" transform="translate(0 0.85)"><rect class="cls-1" x="137.43" y="-1.03" width="89.35" height="76.94"/></clipPath></defs><title>vector_software_example</title><g id="annotation"><g id="_Group_" data-name="&lt;Group&gt;"><g class="cls-2"><g class="cls-3"><line class="cls-4" x1="25.82" y1="49.57" x2="106.64" y2="49.57"/><polyline class="cls-5" points="25.82 49.58 25.85 49.57 25.87 49.57 25.92 49.57 26.02 49.56 26.22 49.55 26.61 49.52 27.41 49.47 29.13 49.35 30.73 49.24 32.3 49.13 34.01 49.01 35.61 48.9 37.33 48.78 39.03 48.67 40.61 48.56 42.33 48.44 43.93 48.33 45.5 48.23 47.2 48.11 48.79 48 50.51 47.88 52.2 47.77 53.78 47.66 55.49 47.54 57.09 47.43 58.82 47.31 60.52 47.2 62.1 47.09 63.82 46.97 65.42 46.86 67 46.75 68.7 46.63 70.29 46.53 72.02 46.41 73.71 46.29 75.29 46.18 77.01 46.07 78.61 45.96 80.17 45.85 81.88 45.73 83.46 45.62 85.18 45.51 86.79 45.4 88.37 45.29 90.08 45.17 91.67 45.06 93.4 44.94 95.09 44.83 96.68 44.72 98.39 44.6 100 44.49 101.57 44.38 103.27 44.27 104.86 44.16 104.89 44.16 104.92 44.15 104.97 44.15 105.08 44.14 105.31 44.13 105.75 44.1 105.8 44.09 105.86 44.09 105.97 44.08 106.19 44.06 106.22 44.06 106.25 44.06 106.3 44.06 106.42 44.05 106.53 44.04 106.55 44.04 106.64 44.04"/><rect class="cls-6" x="24.06" y="47.9" width="3.51" height="3.51"/><rect class="cls-7" x="24.06" y="47.9" width="3.51" height="3.51"/><rect class="cls-8" x="24.06" y="47.9" width="3.51" height="3.51"/><rect class="cls-6" x="44.02" y="46.39" width="3.51" height="3.51"/><rect class="cls-7" x="44.02" y="46.39" width="3.51" height="3.51"/><rect class="cls-8" x="44.02" y="46.39" width="3.51" height="3.51"/><rect class="cls-6" x="63.97" y="45" width="3.51" height="3.51"/><rect class="cls-7" x="63.97" y="45" width="3.51" height="3.51"/><rect class="cls-8" x="63.97" y="45" width="3.51" height="3.51"/><rect class="cls-6" x="83.93" y="43.99" width="3.51" height="3.51"/><rect class="cls-7" x="83.93" y="43.99" width="3.51" height="3.51"/><rect class="cls-8" x="83.93" y="43.99" width="3.51" height="3.51"/><rect class="cls-6" x="103.88" y="42.48" width="3.51" height="3.51"/><rect class="cls-7" x="103.88" y="42.48" width="3.51" height="3.51"/><rect class="cls-8" x="103.88" y="42.48" width="3.51" height="3.51"/><line class="cls-9" x1="25.82" y1="49.73" x2="25.82" y2="49.59"/><line class="cls-9" x1="26.52" y1="49.73" x2="25.12" y2="49.73"/><line class="cls-9" x1="26.52" y1="49.59" x2="25.12" y2="49.59"/><line class="cls-9" x1="45.78" y1="48.2" x2="45.78" y2="48.08"/><line class="cls-9" x1="46.48" y1="48.2" x2="45.07" y2="48.2"/><line class="cls-9" x1="46.48" y1="48.08" x2="45.07" y2="48.08"/><line class="cls-9" x1="65.73" y1="46.83" x2="65.73" y2="46.68"/><line class="cls-9" x1="66.43" y1="46.83" x2="65.03" y2="46.83"/><line class="cls-9" x1="66.43" y1="46.68" x2="65.03" y2="46.68"/><line class="cls-9" x1="85.68" y1="45.87" x2="85.68" y2="45.62"/><line class="cls-9" x1="86.39" y1="45.87" x2="84.98" y2="45.87"/><line class="cls-9" x1="86.39" y1="45.62" x2="84.98" y2="45.62"/><line class="cls-9" x1="105.64" y1="44.58" x2="105.64" y2="43.89"/><line class="cls-9" x1="106.34" y1="44.58" x2="104.94" y2="44.58"/><line class="cls-9" x1="106.34" y1="43.89" x2="104.94" y2="43.89"/><rect class="cls-6" x="24.06" y="47.9" width="3.51" height="3.51"/><rect class="cls-7" x="24.06" y="47.9" width="3.51" height="3.51"/><rect class="cls-8" x="24.06" y="47.9" width="3.51" height="3.51"/><rect class="cls-6" x="44.02" y="46.39" width="3.51" height="3.51"/><rect class="cls-7" x="44.02" y="46.39" width="3.51" height="3.51"/><rect class="cls-8" x="44.02" y="46.39" width="3.51" height="3.51"/><rect class="cls-6" x="63.97" y="45" width="3.51" height="3.51"/><rect class="cls-7" x="63.97" y="45" width="3.51" height="3.51"/><rect class="cls-8" x="63.97" y="45" width="3.51" height="3.51"/><rect class="cls-6" x="83.93" y="43.99" width="3.51" height="3.51"/><rect class="cls-7" x="83.93" y="43.99" width="3.51" height="3.51"/><rect class="cls-8" x="83.93" y="43.99" width="3.51" height="3.51"/><rect class="cls-6" x="103.88" y="42.48" width="3.51" height="3.51"/><rect class="cls-7" x="103.88" y="42.48" width="3.51" height="3.51"/><rect class="cls-8" x="103.88" y="42.48" width="3.51" height="3.51"/><line class="cls-4" x1="25.82" y1="24.09" x2="106.64" y2="24.09"/><polyline class="cls-5" points="25.82 24.09 25.85 24.09 25.87 24.09 25.92 24.08 26.02 24.08 26.22 24.06 26.61 24.04 27.41 23.98 29.13 23.86 30.73 23.75 32.3 23.64 34.01 23.52 35.61 23.41 37.33 23.29 39.03 23.17 40.61 23.06 42.33 22.94 43.93 22.83 45.5 22.72 47.2 22.6 48.79 22.49 50.51 22.37 52.2 22.26 53.78 22.15 55.49 22.03 57.09 21.92 58.82 21.8 60.52 21.68 62.1 21.57 63.82 21.45 65.42 21.34 67 21.23 68.7 21.11 70.29 21 72.02 20.88 73.71 20.76 75.29 20.65 77.01 20.53 78.61 20.42 80.17 20.31 81.88 20.19 83.46 20.08 85.18 19.96 86.79 19.85 88.37 19.74 90.08 19.63 91.67 19.51 93.4 19.39 95.09 19.28 96.68 19.17 98.39 19.05 100 18.94 101.57 18.83 103.27 18.71 104.86 18.6 104.89 18.6 104.92 18.59 104.97 18.59 105.08 18.58 105.75 18.54 105.8 18.53 105.86 18.53 105.97 18.52 106.19 18.5 106.3 18.5 106.42 18.49 106.53 18.48 106.55 18.48 106.64 18.48"/><rect class="cls-6" x="24.06" y="22.33" width="3.51" height="3.51"/><rect class="cls-7" x="24.06" y="22.33" width="3.51" height="3.51"/><rect class="cls-8" x="24.06" y="22.33" width="3.51" height="3.51"/><rect class="cls-6" x="44.02" y="20.97" width="3.51" height="3.51"/><rect class="cls-7" x="44.02" y="20.97" width="3.51" height="3.51"/><rect class="cls-8" x="44.02" y="20.97" width="3.51" height="3.51"/><rect class="cls-6" x="63.97" y="19.48" width="3.51" height="3.51"/><rect class="cls-7" x="63.97" y="19.48" width="3.51" height="3.51"/><rect class="cls-8" x="63.97" y="19.48" width="3.51" height="3.51"/><rect class="cls-6" x="83.93" y="18.4" width="3.51" height="3.51"/><rect class="cls-7" x="83.93" y="18.4" width="3.51" height="3.51"/><rect class="cls-8" x="83.93" y="18.4" width="3.51" height="3.51"/><rect class="cls-6" x="103.88" y="13.78" width="3.51" height="3.51"/><rect class="cls-7" x="103.88" y="13.78" width="3.51" height="3.51"/><rect class="cls-8" x="103.88" y="13.78" width="3.51" height="3.51"/><line class="cls-5" x1="25.82" y1="24.14" x2="25.82" y2="24.03"/><line class="cls-5" x1="26.52" y1="24.14" x2="25.12" y2="24.14"/><line class="cls-5" x1="26.52" y1="24.03" x2="25.12" y2="24.03"/><line class="cls-5" x1="45.78" y1="22.83" x2="45.78" y2="22.63"/><line class="cls-5" x1="46.48" y1="22.83" x2="45.07" y2="22.83"/><line class="cls-5" x1="46.48" y1="22.63" x2="45.07" y2="22.63"/><line class="cls-5" x1="65.73" y1="21.47" x2="65.73" y2="20.99"/><line class="cls-5" x1="66.43" y1="21.47" x2="65.03" y2="21.47"/><line class="cls-5" x1="66.43" y1="20.99" x2="65.03" y2="20.99"/><line class="cls-5" x1="85.68" y1="20.85" x2="85.68" y2="19.46"/><line class="cls-5" x1="86.39" y1="20.85" x2="84.98" y2="20.85"/><line class="cls-5" x1="86.39" y1="19.46" x2="84.98" y2="19.46"/><line class="cls-5" x1="105.64" y1="18.39" x2="105.64" y2="12.68"/><line class="cls-5" x1="106.34" y1="18.39" x2="104.94" y2="18.39"/><line class="cls-5" x1="106.34" y1="12.68" x2="104.94" y2="12.68"/><rect class="cls-6" x="24.06" y="22.33" width="3.51" height="3.51"/><rect class="cls-7" x="24.06" y="22.33" width="3.51" height="3.51"/><rect class="cls-8" x="24.06" y="22.33" width="3.51" height="3.51"/><rect class="cls-6" x="44.02" y="20.97" width="3.51" height="3.51"/><rect class="cls-7" x="44.02" y="20.97" width="3.51" height="3.51"/><rect class="cls-8" x="44.02" y="20.97" width="3.51" height="3.51"/><rect class="cls-6" x="63.97" y="19.48" width="3.51" height="3.51"/><rect class="cls-7" x="63.97" y="19.48" width="3.51" height="3.51"/><rect class="cls-8" x="63.97" y="19.48" width="3.51" height="3.51"/><rect class="cls-6" x="83.93" y="18.4" width="3.51" height="3.51"/><rect class="cls-7" x="83.93" y="18.4" width="3.51" height="3.51"/><rect class="cls-8" x="83.93" y="18.4" width="3.51" height="3.51"/><rect class="cls-6" x="103.88" y="13.78" width="3.51" height="3.51"/><rect class="cls-7" x="103.88" y="13.78" width="3.51" height="3.51"/><rect class="cls-8" x="103.88" y="13.78" width="3.51" height="3.51"/><line class="cls-10" x1="109.38" y1="67.93" x2="22.08" y2="67.93"/><line class="cls-10" x1="22.08" y1="67.93" x2="22.08" y2="8.58"/><line class="cls-10" x1="22.08" y1="8.58" x2="109.38" y2="8.58"/><line class="cls-10" x1="109.38" y1="8.58" x2="109.38" y2="67.93"/><line class="cls-11" x1="25.82" y1="67.93" x2="25.82" y2="66.63"/><line class="cls-11" x1="45.78" y1="67.93" x2="45.78" y2="66.63"/><line class="cls-11" x1="65.73" y1="67.93" x2="65.73" y2="66.63"/><line class="cls-11" x1="85.68" y1="67.93" x2="85.68" y2="66.63"/><line class="cls-11" x1="105.64" y1="67.93" x2="105.64" y2="66.63"/><line class="cls-11" x1="22.08" y1="64.97" x2="23.39" y2="64.97"/><line class="cls-11" x1="22.08" y1="47.45" x2="23.39" y2="47.45"/><line class="cls-11" x1="22.08" y1="29.94" x2="23.39" y2="29.94"/><line class="cls-11" x1="22.08" y1="12.43" x2="23.39" y2="12.43"/><line class="cls-11" x1="22.08" y1="56.21" x2="22.86" y2="56.21"/><line class="cls-11" x1="22.08" y1="38.7" x2="22.86" y2="38.7"/><line class="cls-11" x1="22.08" y1="21.18" x2="22.86" y2="21.18"/><line class="cls-11" x1="25.82" y1="8.58" x2="25.82" y2="9.89"/><line class="cls-11" x1="45.78" y1="8.58" x2="45.78" y2="9.89"/><line class="cls-11" x1="65.73" y1="8.58" x2="65.73" y2="9.89"/><line class="cls-11" x1="85.68" y1="8.58" x2="85.68" y2="9.89"/><line class="cls-11" x1="105.64" y1="8.58" x2="105.64" y2="9.89"/><line class="cls-11" x1="109.38" y1="64.97" x2="108.07" y2="64.97"/><line class="cls-11" x1="109.38" y1="47.45" x2="108.07" y2="47.45"/><line class="cls-11" x1="109.38" y1="29.94" x2="108.07" y2="29.94"/><line class="cls-11" x1="109.38" y1="12.43" x2="108.07" y2="12.43"/><line class="cls-11" x1="109.38" y1="56.21" x2="108.59" y2="56.21"/><line class="cls-11" x1="109.38" y1="38.7" x2="108.59" y2="38.7"/><line class="cls-11" x1="109.38" y1="21.18" x2="108.59" y2="21.18"/></g></g></g><g id="_Group_2" data-name="&lt;Group&gt;"><text class="cls-12" transform="translate(38.83 38.29)">Δ<tspan class="cls-13" x="5.78" y="0">w</tspan></text></g><text class="cls-14" transform="translate(0 7.53)">(a)</text><text class="cls-15" transform="translate(31.3 85.25)">Number of pa<tspan class="cls-16" x="40.29" y="0">r</tspan><tspan x="42.75" y="0">ticle</tspan><tspan class="cls-17" x="55" y="0">s</tspan><tspan class="cls-18" x="57.69" y="0" xml:space="preserve">,   N</tspan></text><text class="cls-15" transform="translate(5.99 50.83) rotate(-90)">v<tspan class="cls-19" x="3.37" y="2">N</tspan><tspan x="6.66" y="0" xml:space="preserve"> (μm/s)</tspan></text><g id="_Group_3" data-name="&lt;Group&gt;"><g class="cls-2"><g class="cls-20"><polyline class="cls-21" points="151.35 9.65 151.57 10.75 151.63 11.02 151.68 11.29 151.79 11.82 152.01 12.84 152.46 14.78 152.51 15.01 152.56 15.24 152.67 15.68 152.89 16.55 153.32 18.2 153.38 18.39 153.43 18.59 153.54 18.98 153.76 19.73 154.2 21.17 154.22 21.25 154.25 21.33 154.3 21.49 154.4 21.81 154.6 22.43 155.01 23.62 155.82 25.8 155.87 25.94 155.93 26.08 156.04 26.36 156.26 26.9 156.7 27.93 157.58 29.83 157.6 29.88 157.68 30.04 157.78 30.25 157.99 30.65 158.4 31.43 159.22 32.9 159.32 33.07 159.42 33.24 159.62 33.57 160.03 34.21 160.83 35.42 162.58 37.74 164.21 39.59 165.98 41.33 167.71 42.82 169.33 44.04 171.08 45.23 172.72 46.21 174.5 47.17 176.24 48.02 177.86 48.74 179.63 49.45 181.27 50.07 182.89 50.62 184.64 51.17 186.27 51.65 188.04 52.13 189.78 52.57 191.4 52.95 193.16 53.34 194.8 53.68 196.41 53.99 198.15 54.31 199.78 54.59 201.55 54.88 203.19 55.13 204.81 55.37 206.56 55.62 208.2 55.83 209.97 56.05 211.71 56.26 213.34 56.45 215.1 56.64 216.74 56.81 218.35 56.97 220.1 57.13 221.73 57.28 221.76 57.28 221.79 57.29 221.85 57.29 221.96 57.3 222.19 57.32 222.64 57.36 222.67 57.37 222.7 57.37 222.76 57.37 222.87 57.38 223.1 57.4 223.16 57.41 223.21 57.41 223.33 57.42 223.35 57.42 223.38 57.43 223.44 57.43 223.47 57.43 223.5 57.44 223.53 57.44 223.56 57.44"/><line class="cls-22" x1="140.64" y1="64.53" x2="223.56" y2="64.53"/><rect class="cls-6" x="164" y="45.44" width="1.99" height="1.99"/><rect class="cls-23" x="164" y="45.44" width="1.99" height="1.99"/><rect class="cls-24" x="164" y="45.44" width="1.99" height="1.99"/><rect class="cls-6" x="164.93" y="46.23" width="1.99" height="1.99"/><rect class="cls-23" x="164.93" y="46.23" width="1.99" height="1.99"/><rect class="cls-24" x="164.93" y="46.23" width="1.99" height="1.99"/><rect class="cls-6" x="165.54" y="46.01" width="1.99" height="1.99"/><rect class="cls-23" x="165.54" y="46.01" width="1.99" height="1.99"/><rect class="cls-24" x="165.54" y="46.01" width="1.99" height="1.99"/><rect class="cls-6" x="166.48" y="45.37" width="1.99" height="1.99"/><rect class="cls-23" x="166.48" y="45.37" width="1.99" height="1.99"/><rect class="cls-24" x="166.48" y="45.37" width="1.99" height="1.99"/><rect class="cls-6" x="164.77" y="46.17" width="1.99" height="1.99"/><rect class="cls-23" x="164.77" y="46.17" width="1.99" height="1.99"/><rect class="cls-24" x="164.77" y="46.17" width="1.99" height="1.99"/><rect class="cls-6" x="165.73" y="47.2" width="1.99" height="1.99"/><rect class="cls-23" x="165.73" y="47.2" width="1.99" height="1.99"/><rect class="cls-24" x="165.73" y="47.2" width="1.99" height="1.99"/><rect class="cls-6" x="154.83" y="22.61" width="1.99" height="1.99"/><rect class="cls-23" x="154.83" y="22.61" width="1.99" height="1.99"/><rect class="cls-24" x="154.83" y="22.61" width="1.99" height="1.99"/><rect class="cls-6" x="155.04" y="23.07" width="1.99" height="1.99"/><rect class="cls-23" x="155.04" y="23.07" width="1.99" height="1.99"/><rect class="cls-24" x="155.04" y="23.07" width="1.99" height="1.99"/><rect class="cls-6" x="155.76" y="29.44" width="1.99" height="1.99"/><rect class="cls-23" x="155.76" y="29.44" width="1.99" height="1.99"/><rect class="cls-24" x="155.76" y="29.44" width="1.99" height="1.99"/><rect class="cls-6" x="154.44" y="22.28" width="1.99" height="1.99"/><rect class="cls-23" x="154.44" y="22.28" width="1.99" height="1.99"/><rect class="cls-24" x="154.44" y="22.28" width="1.99" height="1.99"/><rect class="cls-6" x="155.25" y="28.93" width="1.99" height="1.99"/><rect class="cls-23" x="155.25" y="28.93" width="1.99" height="1.99"/><rect class="cls-24" x="155.25" y="28.93" width="1.99" height="1.99"/><rect class="cls-6" x="153.26" y="15.99" width="1.99" height="1.99"/><rect class="cls-23" x="153.26" y="15.99" width="1.99" height="1.99"/><rect class="cls-24" x="153.26" y="15.99" width="1.99" height="1.99"/><rect class="cls-6" x="152.45" y="10.3" width="1.99" height="1.99"/><rect class="cls-23" x="152.45" y="10.3" width="1.99" height="1.99"/><rect class="cls-24" x="152.45" y="10.3" width="1.99" height="1.99"/><rect class="cls-6" x="152.6" y="13.47" width="1.99" height="1.99"/><rect class="cls-23" x="152.6" y="13.47" width="1.99" height="1.99"/><rect class="cls-24" x="152.6" y="13.47" width="1.99" height="1.99"/><rect class="cls-6" x="152.08" y="14.56" width="1.99" height="1.99"/><rect class="cls-23" x="152.08" y="14.56" width="1.99" height="1.99"/><rect class="cls-24" x="152.08" y="14.56" width="1.99" height="1.99"/><rect class="cls-6" x="185.86" y="50.59" width="1.99" height="1.99"/><rect class="cls-23" x="185.86" y="50.59" width="1.99" height="1.99"/><rect class="cls-24" x="185.86" y="50.59" width="1.99" height="1.99"/><rect class="cls-6" x="184.35" y="50.57" width="1.99" height="1.99"/><rect class="cls-23" x="184.35" y="50.57" width="1.99" height="1.99"/><rect class="cls-24" x="184.35" y="50.57" width="1.99" height="1.99"/><rect class="cls-6" x="182.66" y="50.52" width="1.99" height="1.99"/><rect class="cls-23" x="182.66" y="50.52" width="1.99" height="1.99"/><rect class="cls-24" x="182.66" y="50.52" width="1.99" height="1.99"/><rect class="cls-6" x="181.86" y="50.88" width="1.99" height="1.99"/><rect class="cls-23" x="181.86" y="50.88" width="1.99" height="1.99"/><rect class="cls-24" x="181.86" y="50.88" width="1.99" height="1.99"/><rect class="cls-6" x="180.64" y="52.98" width="1.99" height="1.99"/><rect class="cls-23" x="180.64" y="52.98" width="1.99" height="1.99"/><rect class="cls-24" x="180.64" y="52.98" width="1.99" height="1.99"/><rect class="cls-6" x="212.95" y="55.94" width="1.99" height="1.99"/><rect class="cls-23" x="212.95" y="55.94" width="1.99" height="1.99"/><rect class="cls-24" x="212.95" y="55.94" width="1.99" height="1.99"/><rect class="cls-6" x="213.52" y="55.29" width="1.99" height="1.99"/><rect class="cls-23" x="213.52" y="55.29" width="1.99" height="1.99"/><rect class="cls-24" x="213.52" y="55.29" width="1.99" height="1.99"/><rect class="cls-6" x="215.02" y="55.83" width="1.99" height="1.99"/><rect class="cls-23" x="215.02" y="55.83" width="1.99" height="1.99"/><rect class="cls-24" x="215.02" y="55.83" width="1.99" height="1.99"/><rect class="cls-6" x="215.6" y="56.24" width="1.99" height="1.99"/><rect class="cls-23" x="215.6" y="56.24" width="1.99" height="1.99"/><rect class="cls-24" x="215.6" y="56.24" width="1.99" height="1.99"/><rect class="cls-6" x="219.74" y="56.01" width="1.99" height="1.99"/><rect class="cls-23" x="219.74" y="56.01" width="1.99" height="1.99"/><rect class="cls-24" x="219.74" y="56.01" width="1.99" height="1.99"/><rect class="cls-6" x="220.4" y="56.32" width="1.99" height="1.99"/><rect class="cls-23" x="220.4" y="56.32" width="1.99" height="1.99"/><rect class="cls-24" x="220.4" y="56.32" width="1.99" height="1.99"/><line class="cls-25" x1="164.99" y1="46.74" x2="164.99" y2="46.13"/><line class="cls-25" x1="165.69" y1="46.74" x2="164.3" y2="46.74"/><line class="cls-25" x1="165.69" y1="46.13" x2="164.3" y2="46.13"/><line class="cls-25" x1="165.92" y1="47.7" x2="165.92" y2="46.74"/><line class="cls-25" x1="166.62" y1="47.7" x2="165.23" y2="47.7"/><line class="cls-25" x1="166.62" y1="46.74" x2="165.23" y2="46.74"/><line class="cls-25" x1="166.53" y1="47.86" x2="166.53" y2="46.16"/><line class="cls-25" x1="167.23" y1="47.86" x2="165.84" y2="47.86"/><line class="cls-25" x1="167.23" y1="46.16" x2="165.84" y2="46.16"/><line class="cls-25" x1="167.47" y1="48.2" x2="167.47" y2="44.53"/><line class="cls-25" x1="168.17" y1="48.2" x2="166.78" y2="48.2"/><line class="cls-25" x1="168.17" y1="44.53" x2="166.78" y2="44.53"/><line class="cls-25" x1="165.76" y1="47.84" x2="165.76" y2="46.5"/><line class="cls-25" x1="166.46" y1="47.84" x2="165.07" y2="47.84"/><line class="cls-25" x1="166.46" y1="46.5" x2="165.07" y2="46.5"/><line class="cls-25" x1="166.73" y1="49.02" x2="166.73" y2="47.37"/><line class="cls-25" x1="167.42" y1="49.02" x2="166.03" y2="49.02"/><line class="cls-25" x1="167.42" y1="47.37" x2="166.03" y2="47.37"/><line class="cls-25" x1="155.82" y1="25.48" x2="155.82" y2="21.73"/><line class="cls-25" x1="156.51" y1="25.48" x2="155.12" y2="25.48"/><line class="cls-25" x1="156.51" y1="21.73" x2="155.12" y2="21.73"/><line class="cls-25" x1="156.04" y1="26.31" x2="156.04" y2="21.82"/><line class="cls-25" x1="156.73" y1="26.31" x2="155.34" y2="26.31"/><line class="cls-25" x1="156.73" y1="21.82" x2="155.34" y2="21.82"/><line class="cls-25" x1="156.75" y1="31.94" x2="156.75" y2="28.93"/><line class="cls-25" x1="157.44" y1="31.94" x2="156.05" y2="31.94"/><line class="cls-25" x1="157.44" y1="28.93" x2="156.05" y2="28.93"/><line class="cls-25" x1="155.43" y1="26.07" x2="155.43" y2="20.48"/><line class="cls-25" x1="156.13" y1="26.07" x2="154.74" y2="26.07"/><line class="cls-25" x1="156.13" y1="20.48" x2="154.74" y2="20.48"/><line class="cls-25" x1="156.24" y1="31.57" x2="156.24" y2="28.27"/><line class="cls-25" x1="156.94" y1="31.57" x2="155.55" y2="31.57"/><line class="cls-25" x1="156.94" y1="28.27" x2="155.55" y2="28.27"/><line class="cls-25" x1="154.25" y1="19.09" x2="154.25" y2="14.86"/><line class="cls-25" x1="154.95" y1="19.09" x2="153.56" y2="19.09"/><line class="cls-25" x1="154.95" y1="14.86" x2="153.56" y2="14.86"/><line class="cls-25" x1="153.44" y1="13.47" x2="153.44" y2="9.11"/><line class="cls-25" x1="154.14" y1="13.47" x2="152.75" y2="13.47"/><line class="cls-25" x1="154.14" y1="9.11" x2="152.75" y2="9.11"/><line class="cls-25" x1="153.6" y1="16.19" x2="153.6" y2="12.73"/><line class="cls-25" x1="154.29" y1="16.19" x2="152.9" y2="16.19"/><line class="cls-25" x1="154.29" y1="12.73" x2="152.9" y2="12.73"/><line class="cls-25" x1="153.07" y1="17.82" x2="153.07" y2="13.28"/><line class="cls-25" x1="153.77" y1="17.82" x2="152.38" y2="17.82"/><line class="cls-25" x1="153.77" y1="13.28" x2="152.38" y2="13.28"/><line class="cls-25" x1="186.86" y1="52.46" x2="186.86" y2="50.71"/><line class="cls-25" x1="187.55" y1="52.46" x2="186.16" y2="52.46"/><line class="cls-25" x1="187.55" y1="50.71" x2="186.16" y2="50.71"/><line class="cls-25" x1="185.35" y1="52.18" x2="185.35" y2="50.96"/><line class="cls-25" x1="186.04" y1="52.18" x2="184.65" y2="52.18"/><line class="cls-25" x1="186.04" y1="50.96" x2="184.65" y2="50.96"/><line class="cls-25" x1="183.65" y1="52.04" x2="183.65" y2="50.98"/><line class="cls-25" x1="184.35" y1="52.04" x2="182.96" y2="52.04"/><line class="cls-25" x1="184.35" y1="50.98" x2="182.96" y2="50.98"/><line class="cls-25" x1="182.85" y1="54.48" x2="182.85" y2="49.27"/><line class="cls-25" x1="183.55" y1="54.48" x2="182.16" y2="54.48"/><line class="cls-25" x1="183.55" y1="49.27" x2="182.16" y2="49.27"/><line class="cls-25" x1="181.63" y1="55.39" x2="181.63" y2="52.55"/><line class="cls-25" x1="182.33" y1="55.39" x2="180.94" y2="55.39"/><line class="cls-25" x1="182.33" y1="52.55" x2="180.94" y2="52.55"/><line class="cls-25" x1="213.94" y1="57.19" x2="213.94" y2="56.67"/><line class="cls-25" x1="214.63" y1="57.19" x2="213.24" y2="57.19"/><line class="cls-25" x1="214.63" y1="56.67" x2="213.24" y2="56.67"/><line class="cls-25" x1="214.52" y1="56.43" x2="214.52" y2="56.13"/><line class="cls-25" x1="215.21" y1="56.43" x2="213.82" y2="56.43"/><line class="cls-25" x1="215.21" y1="56.13" x2="213.82" y2="56.13"/><line class="cls-25" x1="216.02" y1="59" x2="216.02" y2="54.65"/><line class="cls-25" x1="216.71" y1="59" x2="215.32" y2="59"/><line class="cls-25" x1="216.71" y1="54.65" x2="215.32" y2="54.65"/><line class="cls-25" x1="216.59" y1="57.47" x2="216.59" y2="57"/><line class="cls-25" x1="217.29" y1="57.47" x2="215.9" y2="57.47"/><line class="cls-25" x1="217.29" y1="57" x2="215.9" y2="57"/><line class="cls-25" x1="220.73" y1="57.29" x2="220.73" y2="56.73"/><line class="cls-25" x1="221.43" y1="57.29" x2="220.04" y2="57.29"/><line class="cls-25" x1="221.43" y1="56.73" x2="220.04" y2="56.73"/><line class="cls-25" x1="221.4" y1="60.58" x2="221.4" y2="54.05"/><line class="cls-25" x1="222.09" y1="60.58" x2="220.7" y2="60.58"/><line class="cls-25" x1="222.09" y1="54.05" x2="220.7" y2="54.05"/><rect class="cls-6" x="164" y="45.44" width="1.99" height="1.99"/><rect class="cls-26" x="164" y="45.44" width="1.99" height="1.99"/><rect class="cls-24" x="164" y="45.44" width="1.99" height="1.99"/><rect class="cls-6" x="164.93" y="46.23" width="1.99" height="1.99"/><rect class="cls-26" x="164.93" y="46.23" width="1.99" height="1.99"/><rect class="cls-24" x="164.93" y="46.23" width="1.99" height="1.99"/><rect class="cls-6" x="165.54" y="46.01" width="1.99" height="1.99"/><rect class="cls-26" x="165.54" y="46.01" width="1.99" height="1.99"/><rect class="cls-24" x="165.54" y="46.01" width="1.99" height="1.99"/><rect class="cls-6" x="166.48" y="45.37" width="1.99" height="1.99"/><rect class="cls-26" x="166.48" y="45.37" width="1.99" height="1.99"/><rect class="cls-24" x="166.48" y="45.37" width="1.99" height="1.99"/><rect class="cls-6" x="164.77" y="46.17" width="1.99" height="1.99"/><rect class="cls-26" x="164.77" y="46.17" width="1.99" height="1.99"/><rect class="cls-24" x="164.77" y="46.17" width="1.99" height="1.99"/><rect class="cls-6" x="165.73" y="47.2" width="1.99" height="1.99"/><rect class="cls-26" x="165.73" y="47.2" width="1.99" height="1.99"/><rect class="cls-24" x="165.73" y="47.2" width="1.99" height="1.99"/><rect class="cls-6" x="154.83" y="22.61" width="1.99" height="1.99"/><rect class="cls-26" x="154.83" y="22.61" width="1.99" height="1.99"/><rect class="cls-24" x="154.83" y="22.61" width="1.99" height="1.99"/><rect class="cls-6" x="155.04" y="23.07" width="1.99" height="1.99"/><rect class="cls-26" x="155.04" y="23.07" width="1.99" height="1.99"/><rect class="cls-24" x="155.04" y="23.07" width="1.99" height="1.99"/><rect class="cls-6" x="155.76" y="29.44" width="1.99" height="1.99"/><rect class="cls-26" x="155.76" y="29.44" width="1.99" height="1.99"/><rect class="cls-24" x="155.76" y="29.44" width="1.99" height="1.99"/><rect class="cls-6" x="154.44" y="22.28" width="1.99" height="1.99"/><rect class="cls-26" x="154.44" y="22.28" width="1.99" height="1.99"/><rect class="cls-24" x="154.44" y="22.28" width="1.99" height="1.99"/><rect class="cls-6" x="155.25" y="28.93" width="1.99" height="1.99"/><rect class="cls-26" x="155.25" y="28.93" width="1.99" height="1.99"/><rect class="cls-24" x="155.25" y="28.93" width="1.99" height="1.99"/><rect class="cls-6" x="153.26" y="15.99" width="1.99" height="1.99"/><rect class="cls-26" x="153.26" y="15.99" width="1.99" height="1.99"/><rect class="cls-24" x="153.26" y="15.99" width="1.99" height="1.99"/><rect class="cls-6" x="152.45" y="10.3" width="1.99" height="1.99"/><rect class="cls-26" x="152.45" y="10.3" width="1.99" height="1.99"/><rect class="cls-24" x="152.45" y="10.3" width="1.99" height="1.99"/><rect class="cls-6" x="152.6" y="13.47" width="1.99" height="1.99"/><rect class="cls-26" x="152.6" y="13.47" width="1.99" height="1.99"/><rect class="cls-24" x="152.6" y="13.47" width="1.99" height="1.99"/><rect class="cls-6" x="152.08" y="14.56" width="1.99" height="1.99"/><rect class="cls-26" x="152.08" y="14.56" width="1.99" height="1.99"/><rect class="cls-24" x="152.08" y="14.56" width="1.99" height="1.99"/><rect class="cls-6" x="185.86" y="50.59" width="1.99" height="1.99"/><rect class="cls-26" x="185.86" y="50.59" width="1.99" height="1.99"/><rect class="cls-24" x="185.86" y="50.59" width="1.99" height="1.99"/><rect class="cls-6" x="184.35" y="50.57" width="1.99" height="1.99"/><rect class="cls-26" x="184.35" y="50.57" width="1.99" height="1.99"/><rect class="cls-24" x="184.35" y="50.57" width="1.99" height="1.99"/><rect class="cls-6" x="182.66" y="50.52" width="1.99" height="1.99"/><rect class="cls-26" x="182.66" y="50.52" width="1.99" height="1.99"/><rect class="cls-24" x="182.66" y="50.52" width="1.99" height="1.99"/><rect class="cls-6" x="181.86" y="50.88" width="1.99" height="1.99"/><rect class="cls-26" x="181.86" y="50.88" width="1.99" height="1.99"/><rect class="cls-24" x="181.86" y="50.88" width="1.99" height="1.99"/><rect class="cls-6" x="180.64" y="52.98" width="1.99" height="1.99"/><rect class="cls-26" x="180.64" y="52.98" width="1.99" height="1.99"/><rect class="cls-24" x="180.64" y="52.98" width="1.99" height="1.99"/><rect class="cls-6" x="212.95" y="55.94" width="1.99" height="1.99"/><rect class="cls-26" x="212.95" y="55.94" width="1.99" height="1.99"/><rect class="cls-24" x="212.95" y="55.94" width="1.99" height="1.99"/><rect class="cls-6" x="213.52" y="55.29" width="1.99" height="1.99"/><rect class="cls-26" x="213.52" y="55.29" width="1.99" height="1.99"/><rect class="cls-24" x="213.52" y="55.29" width="1.99" height="1.99"/><rect class="cls-6" x="215.02" y="55.83" width="1.99" height="1.99"/><rect class="cls-26" x="215.02" y="55.83" width="1.99" height="1.99"/><rect class="cls-24" x="215.02" y="55.83" width="1.99" height="1.99"/><rect class="cls-6" x="215.6" y="56.24" width="1.99" height="1.99"/><rect class="cls-26" x="215.6" y="56.24" width="1.99" height="1.99"/><rect class="cls-24" x="215.6" y="56.24" width="1.99" height="1.99"/><rect class="cls-6" x="219.74" y="56.01" width="1.99" height="1.99"/><rect class="cls-26" x="219.74" y="56.01" width="1.99" height="1.99"/><rect class="cls-24" x="219.74" y="56.01" width="1.99" height="1.99"/><rect class="cls-6" x="220.4" y="56.32" width="1.99" height="1.99"/><rect class="cls-26" x="220.4" y="56.32" width="1.99" height="1.99"/><rect class="cls-24" x="220.4" y="56.32" width="1.99" height="1.99"/><line class="cls-27" x1="225.28" y1="67.6" x2="138.92" y2="67.6"/><line class="cls-27" x1="138.92" y1="67.6" x2="138.92" y2="8.88"/><line class="cls-27" x1="138.92" y1="8.88" x2="225.28" y2="8.88"/><line class="cls-27" x1="225.28" y1="8.88" x2="225.28" y2="67.6"/><line class="cls-28" x1="140.64" y1="67.6" x2="140.64" y2="66.3"/><line class="cls-28" x1="159.07" y1="67.6" x2="159.07" y2="66.3"/><line class="cls-28" x1="177.49" y1="67.6" x2="177.49" y2="66.3"/><line class="cls-28" x1="195.92" y1="67.6" x2="195.92" y2="66.3"/><line class="cls-28" x1="214.34" y1="67.6" x2="214.34" y2="66.3"/><line class="cls-28" x1="149.85" y1="67.6" x2="149.85" y2="66.82"/><line class="cls-28" x1="168.28" y1="67.6" x2="168.28" y2="66.82"/><line class="cls-28" x1="186.71" y1="67.6" x2="186.71" y2="66.82"/><line class="cls-28" x1="205.13" y1="67.6" x2="205.13" y2="66.82"/><line class="cls-28" x1="223.56" y1="67.6" x2="223.56" y2="66.82"/><line class="cls-28" x1="138.92" y1="64.53" x2="140.21" y2="64.53"/><line class="cls-28" x1="138.92" y1="49.18" x2="140.21" y2="49.18"/><line class="cls-28" x1="138.92" y1="33.83" x2="140.21" y2="33.83"/><line class="cls-28" x1="138.92" y1="18.48" x2="140.21" y2="18.48"/><line class="cls-28" x1="138.92" y1="56.85" x2="139.69" y2="56.85"/><line class="cls-28" x1="138.92" y1="41.5" x2="139.69" y2="41.5"/><line class="cls-28" x1="138.92" y1="26.15" x2="139.69" y2="26.15"/><line class="cls-28" x1="138.92" y1="10.8" x2="139.69" y2="10.8"/><line class="cls-28" x1="140.64" y1="8.88" x2="140.64" y2="10.18"/><line class="cls-28" x1="159.07" y1="8.88" x2="159.07" y2="10.18"/><line class="cls-28" x1="177.49" y1="8.88" x2="177.49" y2="10.18"/><line class="cls-28" x1="195.92" y1="8.88" x2="195.92" y2="10.18"/><line class="cls-28" x1="214.34" y1="8.88" x2="214.34" y2="10.18"/><line class="cls-28" x1="149.85" y1="8.88" x2="149.85" y2="9.66"/><line class="cls-28" x1="168.28" y1="8.88" x2="168.28" y2="9.66"/><line class="cls-28" x1="186.71" y1="8.88" x2="186.71" y2="9.66"/><line class="cls-28" x1="205.13" y1="8.88" x2="205.13" y2="9.66"/><line class="cls-28" x1="223.56" y1="8.88" x2="223.56" y2="9.66"/><line class="cls-28" x1="225.28" y1="64.53" x2="223.99" y2="64.53"/><line class="cls-28" x1="225.28" y1="49.18" x2="223.99" y2="49.18"/><line class="cls-28" x1="225.28" y1="33.83" x2="223.99" y2="33.83"/><line class="cls-28" x1="225.28" y1="18.48" x2="223.99" y2="18.48"/><line class="cls-28" x1="225.28" y1="56.85" x2="224.51" y2="56.85"/><line class="cls-28" x1="225.28" y1="41.5" x2="224.51" y2="41.5"/><line class="cls-28" x1="225.28" y1="26.15" x2="224.51" y2="26.15"/><line class="cls-28" x1="225.28" y1="10.8" x2="224.51" y2="10.8"/></g></g></g><g id="_Group_4" data-name="&lt;Group&gt;"><text class="cls-15" transform="translate(24.39 74.82)">1</text><text class="cls-15" transform="translate(44.14 74.82)">2</text><text class="cls-15" transform="translate(63.89 74.82)">3</text><text class="cls-15" transform="translate(83.64 74.82)">4</text><text class="cls-15" transform="translate(103.39 74.82)">5</text></g><g id="_Group_5" data-name="&lt;Group&gt;"><text class="cls-15" transform="translate(16.57 66.93)">0</text><text class="cls-15" transform="translate(12.98 49.49)">20</text><text class="cls-15" transform="translate(12.98 32.05)">40</text><text class="cls-15" transform="translate(12.98 14.61)">60</text></g><g id="_Group_6" data-name="&lt;Group&gt;"><line class="cls-29" x1="33.4" y1="31.9" x2="33.4" y2="44.33"/><polygon class="cls-30" points="33.4 27.95 31.12 33.52 33.4 32.2 35.67 33.52 33.4 27.95"/></g><g id="_Group_7" data-name="&lt;Group&gt;"><text class="cls-31" transform="translate(186.44 32.56)"><tspan class="cls-32">w </tspan><tspan class="cls-33" x="7.34" y="0">= </tspan><tspan class="cls-34" x="12.99" y="0">v</tspan><tspan class="cls-33" x="16.33" y="0">a</tspan><tspan class="cls-35" x="19.7" y="0">r</tspan><tspan class="cls-33" x="22.02" y="0">ied</tspan></text></g><text class="cls-15" transform="translate(154.58 85.25)"><tspan class="cls-36">V</tspan><tspan x="3.68" y="0">eloci</tspan><tspan class="cls-37" x="17.45" y="0">t</tspan><tspan class="cls-38" x="19.83" y="0">y</tspan><tspan x="22.85" y="0" xml:space="preserve">,   v</tspan><tspan class="cls-19" x="32.12" y="2">1</tspan><tspan x="34.69" y="0" xml:space="preserve"> (μm/s)</tspan></text><text class="cls-15" transform="translate(122.35 45.75) rotate(-90)">β (%)</text><text class="cls-14" transform="translate(115.9 7.53)">(<tspan class="cls-39" x="2.56" y="0">b</tspan><tspan x="7.65" y="0">)</tspan></text><text y="0.85"></text><g id="_Group_8" data-name="&lt;Group&gt;"><text class="cls-15" transform="translate(133.09 66.93)">0</text><text class="cls-15" transform="translate(133.09 51.6)">4</text><text class="cls-15" transform="translate(133.09 36.26)">8</text><text class="cls-15" transform="translate(129.5 20.92)">12</text></g><g id="_Group_9" data-name="&lt;Group&gt;"><text class="cls-15" transform="translate(138.96 74.82)">0</text><text class="cls-15" transform="translate(155.58 74.82)">20</text><text class="cls-15" transform="translate(174 74.82)">40</text><text class="cls-15" transform="translate(192.42 74.82)">60</text><text class="cls-15" transform="translate(210.84 74.82)">80</text></g><text class="cls-15" transform="translate(186.44 21.72)">c<tspan class="cls-40" x="3.14" y="2">0</tspan><tspan class="cls-18" x="5.7" y="0" xml:space="preserve"> = 2 mM</tspan></text><text class="cls-15" transform="translate(30.37 61.73)">c<tspan class="cls-40" x="3.14" y="2">0</tspan><tspan class="cls-18" x="5.7" y="0" xml:space="preserve"> = 2 mM</tspan></text></g></svg>